<svg width="24" height="25" viewBox="0 0 24 25" fill="none" xmlns="http://www.w3.org/2000/svg">
<g clip-path="url(#clip0_5_272)">
<path d="M13.4527 0C7.78655 0 3.19271 4.7276 3.19271 10.5597C3.19271 12.6319 3.77243 14.565 4.77437 16.1959C4.76701 16.1992 4.75979 16.2022 4.75241 16.2056L0.288208 20.7998L4.08041 24.7031L8.70539 19.9418C8.70401 19.9351 8.70215 19.9284 8.70071 19.9217C10.1214 20.6873 11.738 21.1203 13.4527 21.1203C19.1189 21.1203 23.7119 16.3919 23.7119 10.5598C23.7118 4.7276 19.1188 0 13.4527 0ZM13.4527 4.69106C16.6015 4.69106 19.1535 7.31863 19.1535 10.5597C19.1535 13.8008 16.6015 16.4284 13.4527 16.4284C10.3038 16.4284 7.75105 13.8008 7.75105 10.5597C7.75105 7.31863 10.3038 4.69106 13.4527 4.69106Z" fill="#B7B7B7" fill-opacity="0.7"/>
</g>
<defs>
<clipPath id="clip0_5_272">
<rect width="24" height="24.7031" fill="white"/>
</clipPath>
</defs>
</svg>
